<mxfile host="app.diagrams.net" agent="Mozilla/5.0 (Windows NT 10.0; Win64; x64) AppleWebKit/537.36 (KHTML, like Gecko) Chrome/129.0.0.0 Safari/537.36" version="24.7.16">
  <diagram name="Page-1" id="i8WgYnjy4WPSflA6Ezpf">
    <mxGraphModel dx="1048" dy="597" grid="1" gridSize="10" guides="1" tooltips="1" connect="1" arrows="1" fold="1" page="1" pageScale="1" pageWidth="850" pageHeight="1100" math="0" shadow="0">
      <root>
        <mxCell id="0" />
        <mxCell id="1" parent="0" />
        <mxCell id="QVEIFhvWdU-Hbp24L2_7-6" value="Scrape out&lt;div&gt;Context Decision&lt;/div&gt;&lt;div&gt;pairs&lt;/div&gt;" style="edgeStyle=orthogonalEdgeStyle;rounded=0;orthogonalLoop=1;jettySize=auto;html=1;labelPosition=center;verticalLabelPosition=top;align=center;verticalAlign=bottom;" edge="1" parent="1" source="QVEIFhvWdU-Hbp24L2_7-3" target="QVEIFhvWdU-Hbp24L2_7-4">
          <mxGeometry relative="1" as="geometry" />
        </mxCell>
        <mxCell id="QVEIFhvWdU-Hbp24L2_7-88" style="edgeStyle=orthogonalEdgeStyle;rounded=0;orthogonalLoop=1;jettySize=auto;html=1;entryX=0;entryY=0.5;entryDx=0;entryDy=0;" edge="1" parent="1" source="QVEIFhvWdU-Hbp24L2_7-3" target="QVEIFhvWdU-Hbp24L2_7-42">
          <mxGeometry relative="1" as="geometry">
            <Array as="points">
              <mxPoint x="215" y="310" />
              <mxPoint x="60" y="310" />
              <mxPoint x="60" y="743" />
            </Array>
          </mxGeometry>
        </mxCell>
        <mxCell id="QVEIFhvWdU-Hbp24L2_7-3" value="&lt;span style=&quot;color: rgb(0, 0, 0); font-family: Helvetica; font-size: 12px; font-style: normal; font-variant-ligatures: normal; font-variant-caps: normal; font-weight: 400; letter-spacing: normal; orphans: 2; text-align: center; text-indent: 0px; text-transform: none; widows: 2; word-spacing: 0px; -webkit-text-stroke-width: 0px; white-space: normal; background-color: rgb(251, 251, 251); text-decoration-thickness: initial; text-decoration-style: initial; text-decoration-color: initial; display: inline !important; float: none;&quot;&gt;Dataset of&lt;/span&gt;&lt;div style=&quot;forced-color-adjust: none; color: rgb(0, 0, 0); font-family: Helvetica; font-size: 12px; font-style: normal; font-variant-ligatures: normal; font-variant-caps: normal; font-weight: 400; letter-spacing: normal; orphans: 2; text-align: center; text-indent: 0px; text-transform: none; widows: 2; word-spacing: 0px; -webkit-text-stroke-width: 0px; white-space: normal; background-color: rgb(251, 251, 251); text-decoration-thickness: initial; text-decoration-style: initial; text-decoration-color: initial;&quot;&gt;Architecture&lt;/div&gt;&lt;div style=&quot;forced-color-adjust: none; color: rgb(0, 0, 0); font-family: Helvetica; font-size: 12px; font-style: normal; font-variant-ligatures: normal; font-variant-caps: normal; font-weight: 400; letter-spacing: normal; orphans: 2; text-align: center; text-indent: 0px; text-transform: none; widows: 2; word-spacing: 0px; -webkit-text-stroke-width: 0px; white-space: normal; background-color: rgb(251, 251, 251); text-decoration-thickness: initial; text-decoration-style: initial; text-decoration-color: initial;&quot;&gt;Decision&lt;/div&gt;&lt;div style=&quot;forced-color-adjust: none; color: rgb(0, 0, 0); font-family: Helvetica; font-size: 12px; font-style: normal; font-variant-ligatures: normal; font-variant-caps: normal; font-weight: 400; letter-spacing: normal; orphans: 2; text-align: center; text-indent: 0px; text-transform: none; widows: 2; word-spacing: 0px; -webkit-text-stroke-width: 0px; white-space: normal; background-color: rgb(251, 251, 251); text-decoration-thickness: initial; text-decoration-style: initial; text-decoration-color: initial;&quot;&gt;Records&lt;/div&gt;" style="rounded=1;whiteSpace=wrap;html=1;verticalAlign=middle;" vertex="1" parent="1">
          <mxGeometry x="165" y="180" width="100" height="70" as="geometry" />
        </mxCell>
        <mxCell id="QVEIFhvWdU-Hbp24L2_7-59" value="Decision Context" style="edgeStyle=orthogonalEdgeStyle;rounded=0;orthogonalLoop=1;jettySize=auto;html=1;entryX=0.5;entryY=0;entryDx=0;entryDy=0;" edge="1" parent="1" source="QVEIFhvWdU-Hbp24L2_7-4" target="QVEIFhvWdU-Hbp24L2_7-17">
          <mxGeometry relative="1" as="geometry" />
        </mxCell>
        <mxCell id="QVEIFhvWdU-Hbp24L2_7-4" value="Training&lt;div&gt;Data&lt;/div&gt;" style="rounded=1;whiteSpace=wrap;html=1;" vertex="1" parent="1">
          <mxGeometry x="185" y="350" width="60" height="40" as="geometry" />
        </mxCell>
        <mxCell id="QVEIFhvWdU-Hbp24L2_7-23" value="" style="swimlane;whiteSpace=wrap;html=1;swimlaneLine=0;labelPosition=center;verticalLabelPosition=middle;align=center;verticalAlign=middle;startSize=20;fillColor=none;dashed=1;" vertex="1" parent="1">
          <mxGeometry x="77.5" y="320" width="305" height="320" as="geometry">
            <mxRectangle x="77.5" y="320" width="50" height="40" as="alternateBounds" />
          </mxGeometry>
        </mxCell>
        <mxCell id="QVEIFhvWdU-Hbp24L2_7-24" value="&lt;b&gt;Approach Fine Tuning&lt;/b&gt;" style="text;html=1;align=center;verticalAlign=middle;resizable=0;points=[];autosize=1;strokeColor=none;fillColor=none;" vertex="1" parent="QVEIFhvWdU-Hbp24L2_7-23">
          <mxGeometry x="155" width="150" height="30" as="geometry" />
        </mxCell>
        <mxCell id="QVEIFhvWdU-Hbp24L2_7-17" value="&lt;b&gt;Approach&lt;/b&gt;" style="swimlane;fontStyle=0;childLayout=stackLayout;horizontal=1;startSize=30;horizontalStack=0;resizeParent=1;resizeParentMax=0;resizeLast=0;collapsible=1;marginBottom=0;whiteSpace=wrap;html=1;" vertex="1" parent="QVEIFhvWdU-Hbp24L2_7-23">
          <mxGeometry x="60" y="110" width="155" height="120" as="geometry" />
        </mxCell>
        <mxCell id="QVEIFhvWdU-Hbp24L2_7-18" value="Prompt processor" style="text;strokeColor=none;fillColor=none;align=left;verticalAlign=middle;spacingLeft=4;spacingRight=4;overflow=hidden;points=[[0,0.5],[1,0.5]];portConstraint=eastwest;rotatable=0;whiteSpace=wrap;html=1;" vertex="1" parent="QVEIFhvWdU-Hbp24L2_7-17">
          <mxGeometry y="30" width="155" height="30" as="geometry" />
        </mxCell>
        <mxCell id="QVEIFhvWdU-Hbp24L2_7-19" value="Previous Design Decisions" style="text;strokeColor=none;fillColor=none;align=left;verticalAlign=middle;spacingLeft=4;spacingRight=4;overflow=hidden;points=[[0,0.5],[1,0.5]];portConstraint=eastwest;rotatable=0;whiteSpace=wrap;html=1;" vertex="1" parent="QVEIFhvWdU-Hbp24L2_7-17">
          <mxGeometry y="60" width="155" height="30" as="geometry" />
        </mxCell>
        <mxCell id="QVEIFhvWdU-Hbp24L2_7-20" value="Generative LLM" style="text;strokeColor=none;fillColor=none;align=left;verticalAlign=middle;spacingLeft=4;spacingRight=4;overflow=hidden;points=[[0,0.5],[1,0.5]];portConstraint=eastwest;rotatable=0;whiteSpace=wrap;html=1;" vertex="1" parent="QVEIFhvWdU-Hbp24L2_7-17">
          <mxGeometry y="90" width="155" height="30" as="geometry" />
        </mxCell>
        <mxCell id="QVEIFhvWdU-Hbp24L2_7-60" value="Generated&lt;div&gt;Design&lt;/div&gt;&lt;div&gt;Decision&lt;/div&gt;" style="ellipse;whiteSpace=wrap;html=1;" vertex="1" parent="QVEIFhvWdU-Hbp24L2_7-23">
          <mxGeometry x="87.5" y="260" width="100" height="50" as="geometry" />
        </mxCell>
        <mxCell id="QVEIFhvWdU-Hbp24L2_7-63" value="" style="endArrow=classic;html=1;rounded=0;exitX=0.501;exitY=1.004;exitDx=0;exitDy=0;exitPerimeter=0;entryX=0.5;entryY=0;entryDx=0;entryDy=0;" edge="1" parent="QVEIFhvWdU-Hbp24L2_7-23" source="QVEIFhvWdU-Hbp24L2_7-20" target="QVEIFhvWdU-Hbp24L2_7-60">
          <mxGeometry width="50" height="50" relative="1" as="geometry">
            <mxPoint x="322.5" y="190" as="sourcePoint" />
            <mxPoint x="372.5" y="140" as="targetPoint" />
          </mxGeometry>
        </mxCell>
        <mxCell id="QVEIFhvWdU-Hbp24L2_7-25" value="&lt;b&gt;Approach&lt;/b&gt;" style="swimlane;fontStyle=0;childLayout=stackLayout;horizontal=1;startSize=30;horizontalStack=0;resizeParent=1;resizeParentMax=0;resizeLast=0;collapsible=1;marginBottom=0;whiteSpace=wrap;html=1;" vertex="1" parent="1">
          <mxGeometry x="470" y="420" width="170" height="120" as="geometry" />
        </mxCell>
        <mxCell id="QVEIFhvWdU-Hbp24L2_7-26" value="Prompt processor" style="text;strokeColor=none;fillColor=none;align=left;verticalAlign=middle;spacingLeft=4;spacingRight=4;overflow=hidden;points=[[0,0.5],[1,0.5]];portConstraint=eastwest;rotatable=0;whiteSpace=wrap;html=1;" vertex="1" parent="QVEIFhvWdU-Hbp24L2_7-25">
          <mxGeometry y="30" width="170" height="30" as="geometry" />
        </mxCell>
        <mxCell id="QVEIFhvWdU-Hbp24L2_7-27" value="Previous Design Decisions" style="text;strokeColor=none;fillColor=none;align=left;verticalAlign=middle;spacingLeft=4;spacingRight=4;overflow=hidden;points=[[0,0.5],[1,0.5]];portConstraint=eastwest;rotatable=0;whiteSpace=wrap;html=1;" vertex="1" parent="QVEIFhvWdU-Hbp24L2_7-25">
          <mxGeometry y="60" width="170" height="30" as="geometry" />
        </mxCell>
        <mxCell id="QVEIFhvWdU-Hbp24L2_7-28" value="&lt;b&gt;Finetuned Generative LLM&lt;/b&gt;" style="text;strokeColor=none;fillColor=none;align=left;verticalAlign=middle;spacingLeft=4;spacingRight=4;overflow=hidden;points=[[0,0.5],[1,0.5]];portConstraint=eastwest;rotatable=0;whiteSpace=wrap;html=1;" vertex="1" parent="QVEIFhvWdU-Hbp24L2_7-25">
          <mxGeometry y="90" width="170" height="30" as="geometry" />
        </mxCell>
        <mxCell id="QVEIFhvWdU-Hbp24L2_7-30" value="Decision&lt;div&gt;Context&lt;/div&gt;" style="edgeStyle=orthogonalEdgeStyle;rounded=0;orthogonalLoop=1;jettySize=auto;html=1;entryX=0.5;entryY=0;entryDx=0;entryDy=0;" edge="1" parent="1" source="QVEIFhvWdU-Hbp24L2_7-29" target="QVEIFhvWdU-Hbp24L2_7-25">
          <mxGeometry relative="1" as="geometry" />
        </mxCell>
        <mxCell id="QVEIFhvWdU-Hbp24L2_7-29" value="Architect with a&lt;div&gt;Decision Problem&lt;/div&gt;" style="shape=umlActor;verticalLabelPosition=top;verticalAlign=bottom;html=1;outlineConnect=0;labelPosition=center;align=center;" vertex="1" parent="1">
          <mxGeometry x="540" y="280" width="30" height="60" as="geometry" />
        </mxCell>
        <mxCell id="QVEIFhvWdU-Hbp24L2_7-32" value="After&lt;div&gt;Fine&lt;/div&gt;&lt;div&gt;Tuning&lt;/div&gt;" style="shape=flexArrow;endArrow=classic;html=1;rounded=0;exitX=1;exitY=0.5;exitDx=0;exitDy=0;entryX=0;entryY=0;entryDx=0;entryDy=0;entryPerimeter=0;" edge="1" parent="1" source="QVEIFhvWdU-Hbp24L2_7-23" target="QVEIFhvWdU-Hbp24L2_7-27">
          <mxGeometry width="50" height="50" relative="1" as="geometry">
            <mxPoint x="400" y="420" as="sourcePoint" />
            <mxPoint x="450" y="370" as="targetPoint" />
          </mxGeometry>
        </mxCell>
        <mxCell id="QVEIFhvWdU-Hbp24L2_7-39" value="Invalid&lt;div&gt;(Goes back&lt;/div&gt;&lt;div&gt;to Approach)&lt;/div&gt;" style="edgeStyle=orthogonalEdgeStyle;rounded=0;orthogonalLoop=1;jettySize=auto;html=1;entryX=0.5;entryY=0;entryDx=0;entryDy=0;" edge="1" parent="1" source="QVEIFhvWdU-Hbp24L2_7-33" target="QVEIFhvWdU-Hbp24L2_7-25">
          <mxGeometry x="-0.6238" y="10" relative="1" as="geometry">
            <Array as="points">
              <mxPoint x="660" y="765" />
              <mxPoint x="660" y="360" />
              <mxPoint x="555" y="360" />
            </Array>
            <mxPoint as="offset" />
          </mxGeometry>
        </mxCell>
        <mxCell id="QVEIFhvWdU-Hbp24L2_7-33" value="Validator" style="rhombus;whiteSpace=wrap;html=1;" vertex="1" parent="1">
          <mxGeometry x="517.5" y="745" width="75" height="40" as="geometry" />
        </mxCell>
        <mxCell id="QVEIFhvWdU-Hbp24L2_7-35" value="Generated&lt;div&gt;Decision&lt;/div&gt;" style="endArrow=classic;html=1;rounded=0;entryX=0.5;entryY=0;entryDx=0;entryDy=0;exitX=0.5;exitY=1;exitDx=0;exitDy=0;exitPerimeter=0;" edge="1" parent="1" source="QVEIFhvWdU-Hbp24L2_7-28" target="QVEIFhvWdU-Hbp24L2_7-33">
          <mxGeometry width="50" height="50" relative="1" as="geometry">
            <mxPoint x="560" y="541" as="sourcePoint" />
            <mxPoint x="450" y="320" as="targetPoint" />
          </mxGeometry>
        </mxCell>
        <mxCell id="QVEIFhvWdU-Hbp24L2_7-41" value="&lt;div&gt;Valid&lt;/div&gt;Design&lt;div&gt;Decision&lt;/div&gt;" style="edgeStyle=orthogonalEdgeStyle;rounded=0;orthogonalLoop=1;jettySize=auto;html=1;entryX=1;entryY=0.3333333333333333;entryDx=0;entryDy=0;entryPerimeter=0;" edge="1" parent="1" source="QVEIFhvWdU-Hbp24L2_7-33" target="QVEIFhvWdU-Hbp24L2_7-29">
          <mxGeometry x="-0.7099" relative="1" as="geometry">
            <Array as="points">
              <mxPoint x="555" y="810" />
              <mxPoint x="690" y="810" />
              <mxPoint x="690" y="300" />
            </Array>
            <mxPoint as="offset" />
          </mxGeometry>
        </mxCell>
        <mxCell id="QVEIFhvWdU-Hbp24L2_7-42" value="Training&lt;div&gt;Data&lt;/div&gt;" style="rounded=1;whiteSpace=wrap;html=1;" vertex="1" parent="1">
          <mxGeometry x="100" y="715" width="60" height="55" as="geometry" />
        </mxCell>
        <mxCell id="QVEIFhvWdU-Hbp24L2_7-49" value="Validator" style="swimlane;whiteSpace=wrap;html=1;swimlaneLine=0;fillColor=none;" vertex="1" parent="1">
          <mxGeometry x="245" y="690" width="110" height="80" as="geometry" />
        </mxCell>
        <mxCell id="QVEIFhvWdU-Hbp24L2_7-64" value="LLM&lt;div&gt;Classifier&lt;/div&gt;" style="shape=hexagon;perimeter=hexagonPerimeter2;whiteSpace=wrap;html=1;fixedSize=1;" vertex="1" parent="QVEIFhvWdU-Hbp24L2_7-49">
          <mxGeometry x="20" y="32.5" width="80" height="37.5" as="geometry" />
        </mxCell>
        <mxCell id="QVEIFhvWdU-Hbp24L2_7-65" value="&lt;div style=&quot;&quot;&gt;Decision&lt;/div&gt;&lt;div style=&quot;&quot;&gt;Context&lt;/div&gt;" style="edgeStyle=orthogonalEdgeStyle;rounded=0;orthogonalLoop=1;jettySize=auto;html=1;exitX=1;exitY=0.25;exitDx=0;exitDy=0;entryX=0.248;entryY=0.035;entryDx=0;entryDy=0;entryPerimeter=0;labelPosition=left;verticalLabelPosition=middle;align=right;verticalAlign=middle;" edge="1" parent="1" source="QVEIFhvWdU-Hbp24L2_7-42" target="QVEIFhvWdU-Hbp24L2_7-64">
          <mxGeometry relative="1" as="geometry">
            <Array as="points">
              <mxPoint x="160" y="724" />
            </Array>
          </mxGeometry>
        </mxCell>
        <mxCell id="QVEIFhvWdU-Hbp24L2_7-68" value="Design&lt;div&gt;Decision&lt;/div&gt;" style="edgeStyle=orthogonalEdgeStyle;rounded=0;orthogonalLoop=1;jettySize=auto;html=1;exitX=1;exitY=0.75;exitDx=0;exitDy=0;entryX=0.194;entryY=0.912;entryDx=0;entryDy=0;entryPerimeter=0;labelPosition=left;verticalLabelPosition=middle;align=right;verticalAlign=middle;" edge="1" parent="1" source="QVEIFhvWdU-Hbp24L2_7-42" target="QVEIFhvWdU-Hbp24L2_7-64">
          <mxGeometry relative="1" as="geometry" />
        </mxCell>
        <mxCell id="QVEIFhvWdU-Hbp24L2_7-69" value="Valid&lt;div&gt;Decision&lt;/div&gt;&lt;div&gt;or not&lt;/div&gt;" style="ellipse;whiteSpace=wrap;html=1;" vertex="1" parent="1">
          <mxGeometry x="255" y="800" width="100" height="50" as="geometry" />
        </mxCell>
        <mxCell id="QVEIFhvWdU-Hbp24L2_7-70" value="" style="edgeStyle=orthogonalEdgeStyle;rounded=0;orthogonalLoop=1;jettySize=auto;html=1;" edge="1" parent="1" source="QVEIFhvWdU-Hbp24L2_7-64" target="QVEIFhvWdU-Hbp24L2_7-69">
          <mxGeometry relative="1" as="geometry" />
        </mxCell>
        <mxCell id="QVEIFhvWdU-Hbp24L2_7-87" value="Validator Training" style="swimlane;whiteSpace=wrap;html=1;swimlaneLine=0;fillColor=none;dashed=1;" vertex="1" parent="1">
          <mxGeometry x="77.5" y="660" width="292.5" height="210" as="geometry" />
        </mxCell>
        <mxCell id="QVEIFhvWdU-Hbp24L2_7-89" value="" style="shape=flexArrow;endArrow=classic;html=1;rounded=0;exitX=1;exitY=0.5;exitDx=0;exitDy=0;" edge="1" parent="1" source="QVEIFhvWdU-Hbp24L2_7-87" target="QVEIFhvWdU-Hbp24L2_7-33">
          <mxGeometry width="50" height="50" relative="1" as="geometry">
            <mxPoint x="360" y="740" as="sourcePoint" />
            <mxPoint x="270" y="540" as="targetPoint" />
          </mxGeometry>
        </mxCell>
      </root>
    </mxGraphModel>
  </diagram>
</mxfile>
